<svg width="33" height="32" viewBox="0 0 33 32" fill="none" xmlns="http://www.w3.org/2000/svg">
<circle cx="16.5" cy="16" r="16" fill="#692CE0"/>
<path d="M22.3116 19.7155C23.9503 18.0874 24.8529 15.9226 24.8529 13.6202C24.8529 11.3177 23.9503 9.15291 22.3116 7.52485C20.6729 5.89678 18.494 5 16.1765 5C13.859 5 11.68 5.89678 10.0413 7.52485C8.40264 9.15291 7.5 11.3177 7.5 13.6202C7.5 15.9226 8.40264 18.0874 10.0413 19.7155C11.4507 21.1157 13.2594 21.9748 15.2125 22.188V24.156H11.3564C10.824 24.156 10.3924 24.5847 10.3924 25.1137C10.3924 25.6427 10.824 26.0714 11.3564 26.0714H20.9968C21.5293 26.0714 21.9608 25.6427 21.9608 25.1137C21.9608 24.5847 21.5293 24.156 20.9968 24.156H17.1407V22.188C19.0935 21.9748 20.9025 21.1157 22.3119 19.7155H22.3116ZM16.1765 20.3246C12.4554 20.3246 9.4282 17.3171 9.4282 13.6202C9.4282 9.92326 12.4554 6.91569 16.1765 6.91569C19.8975 6.91569 22.9247 9.92326 22.9247 13.6202C22.9247 17.3171 19.8975 20.3246 16.1765 20.3246Z" fill="white"/>
<path d="M16.1765 9.78908C14.0502 9.78908 12.3204 11.5077 12.3204 13.6202C12.3204 15.7327 14.0502 17.4513 16.1765 17.4513C18.3028 17.4513 20.0326 15.7327 20.0326 13.6202C20.0326 11.5077 18.3028 9.78908 16.1765 9.78908ZM16.1765 15.5359C15.1133 15.5359 14.2483 14.6764 14.2483 13.6202C14.2483 12.5639 15.1133 11.7045 16.1765 11.7045C17.2396 11.7045 18.1047 12.5639 18.1047 13.6202C18.1047 14.6764 17.2396 15.5359 16.1765 15.5359Z" fill="white"/>
</svg>
