<svg width="32" height="32" viewBox="0 0 32 32" fill="none" xmlns="http://www.w3.org/2000/svg">
<circle cx="16" cy="16" r="16" fill="#EFE8FF"/>
<path d="M16 21.1104C15.4077 21.1234 14.8347 20.903 14.4091 20.498C14.1217 20.2415 13.9557 19.8793 13.9509 19.4981C13.9509 19.0632 13.592 18.7108 13.1491 18.7108C12.7133 18.7108 12.36 19.0577 12.36 19.4856C12.36 19.4899 12.36 19.4941 12.36 19.4981C12.3613 20.2975 12.6973 21.0614 13.2891 21.6104C14.0138 22.303 14.9887 22.6852 16 22.6727C16.4393 22.7275 16.8405 22.422 16.8962 21.9906C16.952 21.5591 16.6409 21.1652 16.2016 21.1104C16.1346 21.1022 16.0669 21.1022 16 21.1104Z" fill="#221F87"/>
<path d="M17.5909 7.56229C17.3491 6.28746 16.5473 6 16 6C15.4527 6 14.6509 6.28746 14.4091 7.56229C13.4545 12.4991 9 14.7488 9 19.5231C9.1176 23.2069 12.2485 26.1025 16 25.9973C19.7515 26.1025 22.8824 23.2069 23 19.5231C23 14.7488 18.5455 12.4991 17.5909 7.56229ZM16 24.435C13.1269 24.5407 10.708 22.3443 10.5909 19.5231C10.5909 17.4484 11.6727 15.8986 12.9327 14.1114C14.4081 12.2689 15.455 10.1317 16 7.84975C16.5391 10.1252 17.5772 12.2579 19.0418 14.0989C20.3145 15.8861 21.3836 17.4359 21.3836 19.5106C21.2732 22.3265 18.868 24.5265 16 24.435Z" fill="#221F87"/>
</svg>
