<svg width="32" height="32" viewBox="0 0 32 32" fill="none" xmlns="http://www.w3.org/2000/svg">
<circle cx="16" cy="16" r="16" fill="#24D2E5"/>
<path d="M23.3441 8.90464H21.9033V7.5956C21.9033 7.42055 21.8185 7.2545 21.6713 7.1411C21.5241 7.02792 21.3296 6.97932 21.1395 7.00812L8.54815 8.91274C8.23195 8.96067 8 9.20907 8 9.50022V24.4044C8 24.7334 8.29365 25 8.65595 25H23.3441C23.7063 25 24 24.7334 24 24.4044V9.50022C24 9.17127 23.7063 8.90464 23.3443 8.90464H23.3441ZM9.3119 10.0047L20.5916 8.2985V21.9963L9.3119 23.7015V10.0047ZM22.6881 23.8091H16.5878L21.3551 23.0882C21.6713 23.0405 21.9033 22.7919 21.9033 22.5007V10.0958H22.6881V23.8091Z" fill="#221F87"/>
</svg>
