<svg width="32" height="32" viewBox="0 0 32 32" fill="none" xmlns="http://www.w3.org/2000/svg">
<circle cx="16" cy="16" r="16" fill="#FEC208"/>
<path d="M17.8262 19.0332C17.9461 19.5396 18.4343 19.8478 18.9168 19.722C19.3992 19.5962 19.693 19.084 19.5731 18.5777L17.8262 19.0332ZM12.4264 18.5777C12.3065 19.084 12.6002 19.5962 13.0827 19.722C13.5652 19.8478 14.0533 19.5396 14.1732 19.0332L12.4264 18.5777ZM15.9997 12.1943C15.5027 12.1943 15.0998 12.617 15.0998 13.1386C15.0998 13.6602 15.5027 14.0829 15.9997 14.0829V12.194V12.1943ZM16.0089 14.0832C16.506 14.0832 16.9088 13.6605 16.9088 13.1389C16.9088 12.6173 16.506 12.1945 16.0089 12.1945V14.0835V14.0832ZM15.9997 13.1389V15.0278C16.9939 15.0278 17.7998 14.1821 17.7998 13.1389H15.9997ZM15.9997 13.1389H14.1997C14.1997 14.1821 15.0056 15.0278 15.9997 15.0278V13.1389ZM15.9997 13.1389V11.2499C15.0056 11.2499 14.1997 12.0957 14.1997 13.1389H15.9997ZM15.9997 13.1389H17.7998C17.7998 12.0957 16.9939 11.2499 15.9997 11.2499V13.1389ZM15.9997 17.8608C17.0303 17.8608 17.6953 18.4799 17.8262 19.033L19.5731 18.5774C19.1935 16.9752 17.6351 15.9719 15.9997 15.9719V17.8608ZM14.1732 19.0332C14.3042 18.4799 14.9692 17.8611 15.9997 17.8611V15.9722C14.3644 15.9722 12.806 16.9754 12.4264 18.5777L14.1732 19.0332ZM15.9997 14.0832H16.0086V12.1943H15.9997V14.0832ZM10.7799 8.88895H21.2198V7H10.7799V8.88895ZM23.1997 10.9666V20.0331H24.9997V10.9666H23.1997ZM21.2198 22.1108H10.7799V23.9997H21.2198V22.1108ZM8.80006 20.0331V10.9666H7V20.0331H8.80006ZM10.7799 22.1108C10.261 22.1108 9.92593 22.1099 9.67106 22.0881C9.42644 22.0671 9.336 22.0314 9.29145 22.0076L8.47417 23.6906C8.81464 23.8728 9.1686 23.9399 9.52445 23.9705C9.86977 24.0003 10.2907 23.9994 10.7799 23.9994V22.1105V22.1108ZM7 20.0331C7 20.5465 6.99919 20.9882 7.02754 21.3506C7.0567 21.724 7.12069 22.0955 7.2943 22.4527L8.89806 21.5951C8.87538 21.5484 8.84137 21.4532 8.82139 21.1967C8.8006 20.929 8.79979 20.5777 8.79979 20.0331H7ZM9.29145 22.0079C9.12216 21.9173 8.98446 21.773 8.89806 21.5951L7.2943 22.4527C7.55322 22.986 7.96631 23.4192 8.47417 23.6909L9.29145 22.0079ZM23.1997 20.0331C23.1997 20.5777 23.1989 20.9293 23.1781 21.1967C23.1581 21.4532 23.1241 21.5484 23.1014 21.5951L24.7052 22.4527C24.8788 22.0955 24.9428 21.724 24.9719 21.3506C25.0003 20.9882 24.9995 20.5465 24.9995 20.0331H23.1994H23.1997ZM21.2198 23.9997C21.709 23.9997 22.13 24.0006 22.4753 23.9708C22.8311 23.9402 23.1851 23.8731 23.5256 23.6909L22.7083 22.0079C22.6637 22.0317 22.573 22.0674 22.3287 22.0884C22.0735 22.1102 21.7387 22.111 21.2198 22.111V24V23.9997ZM23.1017 21.5951C23.0153 21.7728 22.8778 21.9173 22.7083 22.0079L23.5256 23.6909C24.0337 23.4192 24.4465 22.986 24.7054 22.4527L23.1017 21.5951ZM21.2198 8.88895C21.7387 8.88895 22.0738 8.8898 22.3287 8.91162C22.573 8.93259 22.6637 8.96829 22.7083 8.99209L23.5256 7.30911C23.1851 7.12693 22.8311 7.05978 22.4753 7.02919C22.13 6.99915 21.709 7 21.2198 7V8.88895ZM24.9997 10.9666C24.9997 10.4532 25.0005 10.0115 24.9722 9.64912C24.943 9.2757 24.879 8.90425 24.7054 8.54698L23.1017 9.40461C23.1243 9.45136 23.1584 9.54656 23.1783 9.80297C23.1991 10.0704 23.1999 10.422 23.1999 10.9666H25H24.9997ZM22.7083 8.9918C22.8776 9.08247 23.0153 9.22696 23.1017 9.40461L24.7054 8.54698C24.4465 8.01375 24.0337 7.58054 23.5256 7.30883L22.7083 8.9918ZM10.7799 7C10.2907 7 9.86977 6.99915 9.52445 7.0289C9.1686 7.0595 8.81464 7.12665 8.47417 7.30883L9.29145 8.9918C9.336 8.968 9.42671 8.9323 9.67106 8.91134C9.92593 8.88952 10.261 8.88867 10.7799 8.88867V7ZM8.80006 10.9666C8.80006 10.422 8.80087 10.0704 8.82166 9.80297C8.84164 9.54628 8.87565 9.45136 8.89833 9.40461L7.2943 8.54698C7.12069 8.90425 7.0567 9.2757 7.02754 9.64912C6.99919 10.0115 7 10.4532 7 10.9666H8.80006ZM8.47417 7.30883C7.96604 7.58054 7.55322 8.01404 7.2943 8.54698L8.89806 9.40461C8.98446 9.22696 9.12216 9.08247 9.29145 8.9918L8.47417 7.30883Z" fill="#221F87"/>
</svg>
