<svg width="32" height="32" viewBox="0 0 32 32" fill="none" xmlns="http://www.w3.org/2000/svg">
<circle cx="16" cy="16" r="16" fill="#DEFF00"/>
<path d="M22.0906 17.1934C19.9148 17.1934 18.0775 18.678 17.5275 20.6925C16.5306 20.2898 15.405 20.2898 14.4078 20.6925C13.8577 18.678 12.0205 17.1934 9.84461 17.1934C7.2359 17.1934 5.11313 19.3274 5.11313 21.9507C5.11313 24.574 7.23557 26.7081 9.84461 26.7081C12.274 26.7081 14.2812 24.8575 14.546 22.4847L14.8473 22.3332C15.5487 21.9806 16.3863 21.9806 17.0876 22.3332L17.3889 22.4847C17.6537 24.8575 19.6609 26.7081 22.0903 26.7081C24.6994 26.7081 26.8218 24.574 26.8218 21.9507C26.8218 19.3274 24.6994 17.1934 22.0903 17.1934H22.0906ZM9.84461 25.0291C8.15668 25.0291 6.78303 23.6482 6.78303 21.9507C6.78303 20.2532 8.15635 18.8724 9.84461 18.8724C11.5329 18.8724 12.9062 20.2532 12.9062 21.9507C12.9062 23.6482 11.5329 25.0291 9.84461 25.0291ZM22.0906 25.0291C20.4027 25.0291 19.029 23.6482 19.029 21.9507C19.029 20.2532 20.4024 18.8724 22.0906 18.8724C23.7789 18.8724 25.1522 20.2532 25.1522 21.9507C25.1522 23.6482 23.7789 25.0291 22.0906 25.0291Z" fill="#692CE0"/>
<path d="M27.1004 13.8353H25.5256L25.0003 11.7224C24.3677 9.17906 24.0194 7.77775 22.8872 6.88888C21.7547 6 20.3179 6 17.7102 6H14.2251C11.6171 6 10.1806 6 9.0481 6.88888C7.91557 7.77809 7.56723 9.17906 6.93468 11.7231L6.40933 13.8353H4.83495C4.37372 13.8353 4 14.2111 4 14.6748C4 15.1386 4.37372 15.5144 4.83495 15.5144H7.05725C7.06293 15.5144 7.06827 15.5144 7.07395 15.5144H24.8684C24.8684 15.5144 24.8714 15.5144 24.873 15.5144C24.875 15.5144 24.8774 15.5144 24.8794 15.5144H27.1C27.5612 15.5144 27.935 15.1386 27.935 14.6748C27.935 14.2111 27.5612 13.8353 27.1 13.8353H27.1004ZM8.55481 12.1305C9.1533 9.72307 9.42249 8.72539 10.0758 8.21262C10.729 7.69951 11.7567 7.67936 14.2251 7.67936H17.7102C20.1783 7.67936 21.206 7.69984 21.8596 8.21262C22.5128 8.72573 22.782 9.72273 23.3805 12.1305L23.8043 13.8357H8.13099L8.55481 12.1305Z" fill="#692CE0"/>
</svg>
