<svg width="28" height="28" viewBox="0 0 28 28" fill="none" xmlns="http://www.w3.org/2000/svg">
<path d="M25.4399 13.8374C24.4917 13.2662 23.3484 13.675 22.1909 13.9309C20.0345 14.4111 17.2463 13.4265 18.9714 10.8656C19.9398 9.42778 22.7846 8.05543 23.5281 6.38592C24.3279 4.58971 24.2047 2.37106 21.515 0.7887C19.7104 -0.272854 17.1019 0.424349 15.6311 2.37666C14.16 4.32896 14.6079 7.23642 14.0503 9.66053C13.2023 13.3597 10.4807 10.8901 10.4405 8.20103C10.3912 4.69576 11.3301 -0.272854 5.4639 0.0116971C5.00937 0.0340972 4.58572 0.0904474 4.19364 0.176198C-1.00117 1.32735 -0.452617 7.79887 3.78214 10.0119C6.8542 11.616 10.717 12.2488 10.9019 14.0191C10.8582 15.8787 5.05621 11.4042 2.74401 15.6361C0.96371 18.8964 3.20756 24.2696 6.70639 21.7489C7.35627 21.2809 8.0561 20.5585 8.81423 19.5638C11.6962 16.1604 13.5934 18.1747 10.4838 20.8756C8.04361 22.9952 9.73196 26.113 11.4495 27.0349C13.6302 28.2074 15.8379 28.5791 18.1928 26.6044C20.0203 25.0721 19.6827 22.9427 18.7306 21.8917C16.0406 18.9219 15.544 15.6232 18.6855 16.9255C20.7736 17.7914 22.4657 21.0765 25.0375 21.0177C28.0859 20.1469 28.5221 15.4916 25.4399 13.8374ZM3.51844 1.75925C0.69134 4.77766 2.96607 7.18427 5.29041 9.12083C0.528611 6.26062 0.624028 3.63211 3.51844 1.75925ZM4.3012 21.0961C3.3748 20.6824 3.20825 19.7805 3.28493 18.7207C4.33313 21.6736 6.38163 20.6558 7.53808 19.3979C6.94129 20.1798 5.84799 21.787 4.3012 21.0961Z" fill="white"/>
</svg>
