<svg width="170" height="45" xmlns="http://www.w3.org/2000/svg"><path d="M29.25 29.35c5.93-1.02 6.2-1.23 4.39-3.24-2.57-2.83-2.04-5.89 1.31-7.62 4.65-2.4 5.93-.87 1.97 2.34-2.04 1.65-2.05 1.75-.27 4.84 2.26 3.95 1.69 4.52-5.15 5.08-4.69-.88-4.93-.94-2.25-1.4zm132.18 1.19l.46-5.93-1.97 3.25c-2.57 4.23-5.24 3.82-5.93-.9l-.5-3.5-1.77 4.33c-1.02 2.5-2.28 4.14-2.99 3.9-2.61-.92 1.33-11.24 4.64-12.13 4.43-1.19 4.93-.82 4.29 3.15l-.6 3.75 2.54-3.25c4.62-5.89 10-3.4 5.76 2.65-.9 1.29-2.26 4.2-3.02 6.47l-1.37 4.13zm-98.75.78c-.88-1.69-1.64-2.23-2.09-1.5-1.75 2.84-7.59.54-7.59-2.98 0-2.47 4.84-7.88 7.04-7.88 1.38 0 2.31-1.42 3.6-5.5.95-3.02 2.32-5.5 3.05-5.5 1.91 0 1.62 2.6-1.17 10.5-2.9 8.2-2.97 9.1-1.07 12.75.79 1.52 1.03 2.75.53 2.75s-1.54-1.19-2.3-2.64zm-3.18-6.36c.86-1.65 1.1-3 .56-3-1.07 0-3.06 3.2-3.06 4.94 0 1.85.9 1.16 2.5-1.94zm9.07 6.43c-2.42-2.43-1.87-6.01 1.54-9.9 3.45-3.93 6.3-4.5 7.86-1.6 3.79 7.09-4.12 16.77-9.4 11.5zm5.6-4.08c1.01-.91 1.82-2.83 1.8-4.25l-.03-2.6-2.47 2.8c-3.77 4.3-3.2 7.58.7 4.05zm61.4 4.08c-2.42-2.43-1.87-6.01 1.54-9.9 3.45-3.93 6.3-4.5 7.86-1.6 3.79 7.09-4.13 16.77-9.4 11.5zm5.6-4.08c1.01-.91 1.82-2.83 1.8-4.25l-.03-2.6-2.47 2.8c-3.77 4.3-3.2 7.58.7 4.05zm-98.82 3.1c-.86-2.22.28-9.49 1.69-10.82.92-.87 1.04-.04.52 3.62-.85 5.96-.04 6.04 2.44.25 2.4-5.6 4.52-6.04 3.64-.75a48.58 48.58 0 00-.63 5.97c0 1.49-.47 2.04-1.4 1.68-.78-.3-1.7-.05-2.07.53-.97 1.59-3.51 1.3-4.2-.47zm58 0c-.86-2.22.28-9.49 1.69-10.82.92-.87 1.04-.04.52 3.62-.85 5.96-.04 6.04 2.44.25 2.4-5.6 4.52-6.04 3.64-.75a48.58 48.58 0 00-.63 5.97c0 1.49-.47 2.04-1.4 1.68-.78-.3-1.7-.05-2.07.53-.97 1.59-3.51 1.3-4.2-.47zm20.85.35c-2.57-2.57 2.44-11.8 6.4-11.8 2.04 0 1.68 1.08-1.63 4.95-3.3 3.86-2.48 5.47 2.28 4.47 3.84-.8 3.44.4-.72 2.13-4.2 1.76-4.8 1.79-6.33.25zm-9.19-1.29c-1-1.2-.92-1.6.4-2.1 1.64-.64 4.6 1.1 4.6 2.71 0 1.45-3.67 1-5-.6z" fill="#fff"/><path d="M91 30.92l-4.5-2.9-1.83 2.47c-5.45 7.36-5.74 2.1-.55-9.96 5.12-11.87 9.96-12.97 5.31-1.2-.7 1.79-.62 1.8 1.77.23 2.33-1.52 2.62-1.52 3.87-.01 1.45 1.74-.83 4.41-3.76 4.41-2.02 0-1.67.55 3.44 5.42 5.68 5.42 3.58 6.28-3.75 1.54zM4 22.96v-17h22v11.98c0 22.02-.03 2.36 0 17.65v4.37H4z" fill="#E8171C"/><path d="M18.15 18.16c3.5-5.97 2.07-7.33-3.43-3.29-4.52 3.32-5.5 5.5-2.1 4.6 1.78-.46 2-.22 1.42 1.63-.37 1.2-.87 4.44-1.1 7.19l-.45 5L14 27.97c.83-2.92 2.7-7.34 4.15-9.81z" fill="#fff"/></svg>